<svg width="21" height="21" viewBox="0 0 31 31" fill="none" xmlns="http://www.w3.org/2000/svg">
<path d="M29.4286 24.2858H1.57143C1.28727 24.2858 1.01475 24.4438 0.813814 24.7251C0.612882 25.0064 0.5 25.3879 0.5 25.7858V28.7858C0.5 29.1836 0.612882 29.5651 0.813814 29.8464C1.01475 30.1277 1.28727 30.2858 1.57143 30.2858H29.4286C29.7127 30.2858 29.9853 30.1277 30.1862 29.8464C30.3871 29.5651 30.5 29.1836 30.5 28.7858V25.7858C30.5 25.3879 30.3871 25.0064 30.1862 24.7251C29.9853 24.4438 29.7127 24.2858 29.4286 24.2858ZM29.4286 12.2858H1.57143C1.28727 12.2858 1.01475 12.4438 0.813814 12.7251C0.612882 13.0064 0.5 13.3879 0.5 13.7858V16.7858C0.5 17.1836 0.612882 17.5651 0.813814 17.8464C1.01475 18.1277 1.28727 18.2858 1.57143 18.2858H29.4286C29.7127 18.2858 29.9853 18.1277 30.1862 17.8464C30.3871 17.5651 30.5 17.1836 30.5 16.7858V13.7858C30.5 13.3879 30.3871 13.0064 30.1862 12.7251C29.9853 12.4438 29.7127 12.2858 29.4286 12.2858ZM29.4286 0.285767H1.57143C1.28727 0.285767 1.01475 0.443802 0.813814 0.725106C0.612882 1.00641 0.5 1.38794 0.5 1.78577V4.78577C0.5 5.18359 0.612882 5.56512 0.813814 5.84643C1.01475 6.12773 1.28727 6.28577 1.57143 6.28577H29.4286C29.7127 6.28577 29.9853 6.12773 30.1862 5.84643C30.3871 5.56512 30.5 5.18359 30.5 4.78577V1.78577C30.5 1.38794 30.3871 1.00641 30.1862 0.725106C29.9853 0.443802 29.7127 0.285767 29.4286 0.285767Z" fill="white"/>
</svg>
